<?xml version="1.0" encoding="UTF-8" standalone="no"?>
<!DOCTYPE svg PUBLIC "-//W3C//DTD SVG 1.1//EN" "http://www.w3.org/Graphics/SVG/1.1/DTD/svg11.dtd">
<svg width="100%" height="100%" viewBox="0 0 465 184" version="1.1" xmlns="http://www.w3.org/2000/svg" xmlns:xlink="http://www.w3.org/1999/xlink" xml:space="preserve" xmlns:serif="http://www.serif.com/" style="fill-rule:evenodd;clip-rule:evenodd;stroke-linejoin:round;stroke-miterlimit:2;">
    <g transform="matrix(4.16667,0,0,4.16667,0,0)">
        <g transform="matrix(1,0,0,1,-70.3,-50)">
            <path d="M87.4,53.4C94.6,52.2 100.7,52.7 105.2,55.8C108.938,58.444 111.461,62.482 112.2,67C114.5,81.6 104.5,89.6 91,91.7L75.9,94.2L75.6,91.9C79.8,90.8 80.2,90.4 79.2,84L76.1,64.8C75.1,58.5 74.5,58.1 70.7,58.4L70.3,56.1L87.4,53.4ZM89.1,82.5C89.9,87.7 91.4,88.5 94.2,88.1C99.2,87.3 103.4,80.9 101.7,70.5C99.7,58 92.8,55.5 87.8,56.3C86.944,56.352 86.116,56.628 85.4,57.1C85.1,57.3 85.2,58.6 85.5,60.1L89.1,82.5Z" style="fill-rule:nonzero;"/>
        </g>
        <g transform="matrix(1,0,0,1,-70.3,-50)">
            <path d="M125,50.3C132.3,50.4 138.3,51.9 142.2,55.8C145.417,59.074 147.185,63.51 147.1,68.1C146.9,82.8 135.6,88.9 121.9,88.7L106.7,88.5L106.7,86.1C111,85.9 111.5,85.5 111.6,79.1L111.9,59.5C112,53.2 111.6,52.7 107.7,52.3L107.7,50L125,50.3ZM121.7,79.3C121.6,84.6 122.9,85.6 125.7,85.6C130.8,85.7 136,80.2 136.2,69.7C136.4,57 130,53.3 125,53.3C124.122,53.185 123.229,53.288 122.4,53.6C122.1,53.7 122.1,55.1 122,56.6L121.7,79.3Z" style="fill-rule:nonzero;"/>
        </g>
        <g transform="matrix(1,0,0,1,-70.3,-50)">
            <path d="M162.8,53.8C169.9,55.2 175.6,57.8 178.7,62.3C181.236,66.087 182.204,70.714 181.4,75.2C178.5,89.7 166.3,93.7 152.9,91.1L137.9,88.1L138.3,85.8C142.7,86.3 143.2,86 144.4,79.7L148.2,60.6C149.5,54.3 149.1,53.8 145.4,52.7L145.9,50.5L162.8,53.8ZM154.3,81.8C153.3,86.9 154.4,88.2 157.1,88.7C162.1,89.7 168.3,85.2 170.3,74.9C172.8,62.4 167.2,57.7 162.2,56.7C161.378,56.525 160.533,56.491 159.7,56.6C159.3,56.7 159,58 158.7,59.5L154.3,81.8Z" style="fill-rule:nonzero;"/>
        </g>
    </g>
</svg>
